<svg width="241" height="122" viewBox="0 0 241 122" fill="none" xmlns="http://www.w3.org/2000/svg">
<path d="M3.3125 0.1875C4.64583 0.229167 5.8125 0.25 6.8125 0.25C7.8125 0.208333 8.625 0.1875 9.25 0.1875H11.0625C11.5208 0.145833 12.0833 0.125 12.75 0.125C13.3333 0.125 14.0417 0.125 14.875 0.125C15.7083 0.125 16.6667 0.145833 17.75 0.1875C18.0833 1.35417 18.4583 2.5 18.875 3.625C19.3333 4.70833 19.7292 5.6875 20.0625 6.5625C20.4792 7.60417 20.8958 8.58333 21.3125 9.5C21.7292 10.4167 22.2292 11.5208 22.8125 12.8125C23.3125 13.8958 23.9167 15.2292 24.625 16.8125C25.3333 18.3542 26.1667 20.125 27.125 22.125C27.5833 20.8333 28 19.6458 28.375 18.5625C28.7917 17.4792 29.1458 16.5417 29.4375 15.75C29.7708 14.8333 30.0417 14 30.25 13.25C30.4583 12.5 30.6875 11.5833 30.9375 10.5C31.1458 9.58333 31.375 8.47917 31.625 7.1875C31.9167 5.89583 32.2083 4.39583 32.5 2.6875C33.7083 2.6875 34.7917 2.6875 35.75 2.6875C36.7083 2.6875 37.5417 2.66667 38.25 2.625C39.0417 2.625 39.75 2.60417 40.375 2.5625C41.0417 2.5625 41.9375 2.52083 43.0625 2.4375C44.0208 2.35417 45.2917 2.29167 46.875 2.25C48.5 2.16667 50.5 2.0625 52.875 1.9375C52 2.5625 51.2917 3.1875 50.75 3.8125C50.25 4.39583 49.8542 4.91667 49.5625 5.375C49.2292 5.91667 49.0208 6.4375 48.9375 6.9375C48.8542 7.35417 48.7708 8.3125 48.6875 9.8125C48.6458 11.3125 48.5833 13.1042 48.5 15.1875C48.4583 17.2292 48.4167 19.4167 48.375 21.75C48.375 24.0833 48.3958 26.2917 48.4375 28.375C48.4792 30.4583 48.5417 32.2708 48.625 33.8125C48.75 35.3125 48.9167 36.2708 49.125 36.6875C49.4167 37.1875 49.8125 37.7708 50.3125 38.4375C50.7708 39.0208 51.3542 39.6875 52.0625 40.4375C52.8125 41.1875 53.7917 42.0208 55 42.9375C53.0833 43.0208 51.4792 43.0833 50.1875 43.125C48.9375 43.1667 47.8958 43.2083 47.0625 43.25C46.1042 43.2917 45.3333 43.3125 44.75 43.3125C44.125 43.3125 43.2708 43.3333 42.1875 43.375C41.2292 43.4167 39.9583 43.4792 38.375 43.5625C36.7917 43.6042 34.75 43.6875 32.25 43.8125C32.8333 43.1458 33.375 42.4792 33.875 41.8125C34.375 41.1458 34.7917 40.5417 35.125 40C35.5417 39.375 35.8958 38.7708 36.1875 38.1875C36.4792 37.3958 36.7083 35.9583 36.875 33.875C37.0417 32.0833 37.1667 29.5208 37.25 26.1875C37.3333 22.8125 37.3333 18.2917 37.25 12.625C36.4583 13.9167 35.75 15.2083 35.125 16.5C34.5417 17.75 34.0208 18.8958 33.5625 19.9375C33.0625 21.1458 32.6042 22.3125 32.1875 23.4375C31.7708 24.6042 31.3333 25.8958 30.875 27.3125C30.4583 28.5208 29.9583 29.9583 29.375 31.625C28.8333 33.2917 28.2083 35.125 27.5 37.125L25.125 37.25C24.7917 35.5833 24.4583 34.0833 24.125 32.75C23.7917 31.375 23.4583 30.2083 23.125 29.25C22.75 28.125 22.375 27.125 22 26.25C21.5833 25.375 21.125 24.3958 20.625 23.3125C20.1667 22.3958 19.6042 21.3125 18.9375 20.0625C18.3125 18.8125 17.5833 17.4167 16.75 15.875C16.3333 20.125 16.0833 23.5833 16 26.25C15.9167 28.875 15.9167 30.9167 16 32.375C16.0833 34.125 16.2083 35.3958 16.375 36.1875C16.625 36.8958 17.0208 37.6875 17.5625 38.5625C18.0208 39.3125 18.6458 40.2083 19.4375 41.25C20.2708 42.25 21.3333 43.375 22.625 44.625C21.7083 44.625 20.75 44.625 19.75 44.625C18.75 44.625 17.8333 44.6458 17 44.6875C16 44.7292 15.0208 44.75 14.0625 44.75C13.0625 44.7917 11.8958 44.8542 10.5625 44.9375C9.39583 45.0208 8 45.1042 6.375 45.1875C4.75 45.2708 2.875 45.4167 0.75 45.625C1.66667 45.0417 2.41667 44.4792 3 43.9375C3.58333 43.3542 4.04167 42.8333 4.375 42.375C4.79167 41.8333 5.10417 41.2917 5.3125 40.75C5.4375 40.4167 5.54167 39.6875 5.625 38.5625C5.75 37.4375 5.85417 36.0625 5.9375 34.4375C6.0625 32.8125 6.14583 31 6.1875 29C6.27083 27 6.33333 24.9792 6.375 22.9375C6.45833 20.8542 6.52083 18.8333 6.5625 16.875C6.60417 14.875 6.625 13.0833 6.625 11.5C6.66667 9.875 6.6875 8.52083 6.6875 7.4375C6.6875 6.35417 6.6875 5.66667 6.6875 5.375C6.5625 4.75 6.375 4.125 6.125 3.5C5.91667 2.95833 5.58333 2.39583 5.125 1.8125C4.66667 1.22917 4.0625 0.6875 3.3125 0.1875ZM69.3125 34.9375C70.4792 34.9375 71.5625 34.8125 72.5625 34.5625C73.3958 34.3542 74.1875 34.0208 74.9375 33.5625C75.7292 33.0625 76.25 32.3333 76.5 31.375C77.3333 31.5417 78.0417 31.6875 78.625 31.8125C79.2083 31.8958 79.7083 31.9792 80.125 32.0625C80.5833 32.1875 80.9792 32.2708 81.3125 32.3125C81.6458 32.3958 82.0417 32.4792 82.5 32.5625C82.9167 32.6458 83.4167 32.75 84 32.875C84.625 32.9583 85.3542 33.0833 86.1875 33.25C85.5625 33.1667 84.9167 33.2292 84.25 33.4375C83.625 33.6458 83.0208 33.875 82.4375 34.125C81.7708 34.4167 81.1458 34.7708 80.5625 35.1875C80.1875 35.4375 79.75 35.8125 79.25 36.3125C78.7917 36.8125 78.125 37.2917 77.25 37.75C76.375 38.2083 75.2083 38.6042 73.75 38.9375C72.3333 39.2292 70.5 39.3333 68.25 39.25C65.5417 39.1667 63.2708 38.6875 61.4375 37.8125C59.6042 36.8958 58.125 35.7917 57 34.5C55.875 33.1667 55.0625 31.7292 54.5625 30.1875C54.0625 28.6458 53.7917 27.2083 53.75 25.875C53.7083 24.5417 54.1042 23.1458 54.9375 21.6875C55.7708 20.2292 56.9375 18.8958 58.4375 17.6875C59.9792 16.4792 61.8333 15.5 64 14.75C66.1667 13.9583 68.5417 13.5625 71.125 13.5625C72.625 13.5625 74 13.75 75.25 14.125C76.5417 14.4583 77.7083 14.9167 78.75 15.5C79.8333 16.0833 80.7708 16.75 81.5625 17.5C82.3542 18.2083 83.0208 18.9375 83.5625 19.6875C84.1042 20.4792 84.5625 21.3125 84.9375 22.1875C85.2708 22.9375 85.5417 23.7917 85.75 24.75C85.9583 25.7083 86.0208 26.6875 85.9375 27.6875C82.7708 27.7708 80.2083 27.8333 78.25 27.875C76.3333 27.9167 74.8333 27.9375 73.75 27.9375H70.9375H68.8125C68.0625 27.9375 67.0833 27.9583 65.875 28C64.6667 28.0417 63.1875 28.1042 61.4375 28.1875C61.6458 29.8542 62.1667 31.1458 63 32.0625C63.875 32.9375 64.7917 33.6042 65.75 34.0625C66.8333 34.5625 68.0208 34.8542 69.3125 34.9375ZM63.6875 23.6875C65.0208 23.7708 66.125 23.8333 67 23.875C67.9167 23.9167 68.6667 23.9583 69.25 24C69.875 24.0417 70.375 24.0625 70.75 24.0625H72.3125C73.3542 24.0625 75.2917 24 78.125 23.875C78 22.0417 77.6042 20.6458 76.9375 19.6875C76.3125 18.7292 75.6458 18.0208 74.9375 17.5625C74.1042 17.0625 73.1875 16.7708 72.1875 16.6875C69.4792 16.7292 67.4583 17.2917 66.125 18.375C64.8333 19.4583 64.0208 21.2292 63.6875 23.6875ZM88.125 15.375C89.0833 15.2917 89.8958 15.2083 90.5625 15.125C91.2708 15.0417 91.8542 14.9583 92.3125 14.875C92.8542 14.7917 93.3125 14.7083 93.6875 14.625C94.0625 14.5833 94.4792 14.5 94.9375 14.375C95.3542 14.2917 95.8125 14.1875 96.3125 14.0625C96.8542 13.8958 97.4375 13.7083 98.0625 13.5L97.6875 21.4375C98.6042 19.9792 99.6667 18.875 100.875 18.125C102.083 17.3333 103.229 16.75 104.312 16.375C105.604 15.9167 106.896 15.6458 108.188 15.5625C109.521 15.6042 110.75 15.8125 111.875 16.1875C112.833 16.5208 113.792 17.0417 114.75 17.75C115.75 18.4583 116.521 19.5 117.062 20.875C118.479 19.4167 119.875 18.2917 121.25 17.5C122.667 16.6667 123.917 16.0417 125 15.625C126.292 15.1667 127.5 14.8958 128.625 14.8125C130.125 14.7708 131.5 15.0208 132.75 15.5625C134.042 16.1042 135.167 16.7917 136.125 17.625C137.083 18.4167 137.854 19.2708 138.438 20.1875C139.021 21.0625 139.354 21.8333 139.438 22.5C139.562 23.4167 139.5 24.6042 139.25 26.0625C139 27.4792 138.708 28.9375 138.375 30.4375C138.042 31.8958 137.729 33.25 137.438 34.5C137.188 35.7083 137.083 36.5625 137.125 37.0625C137.25 37.4792 137.542 37.9792 138 38.5625C138.417 39.0625 139.021 39.6875 139.812 40.4375C140.646 41.1458 141.833 41.9792 143.375 42.9375C142.042 42.8958 140.854 42.8542 139.812 42.8125C138.812 42.7708 137.958 42.7083 137.25 42.625C136.417 42.5417 135.688 42.4792 135.062 42.4375C134.562 42.4375 133.958 42.3958 133.25 42.3125C132.667 42.2708 131.896 42.2083 130.938 42.125C130.021 42.0417 128.958 41.9583 127.75 41.875C128.208 41.75 128.583 41.5208 128.875 41.1875C129.167 40.8125 129.417 40.4583 129.625 40.125C129.833 39.7083 130 39.25 130.125 38.75C130.208 38.3333 130.292 37.6667 130.375 36.75C130.458 35.8333 130.521 34.7917 130.562 33.625C130.646 32.4583 130.688 31.2292 130.688 29.9375C130.729 28.6458 130.729 27.4167 130.688 26.25C130.646 25.0833 130.562 24.0208 130.438 23.0625C130.312 22.1042 130.146 21.375 129.938 20.875C129.771 20.5 129.479 20.2083 129.062 20C128.646 19.75 128.167 19.6042 127.625 19.5625C127.083 19.4792 126.542 19.5 126 19.625C125.458 19.7083 124.979 19.875 124.562 20.125C124.188 20.4167 123.688 20.8125 123.062 21.3125C122.521 21.7708 121.812 22.3958 120.938 23.1875C120.062 23.9792 118.958 24.9792 117.625 26.1875C117.5 28.8125 117.396 30.9375 117.312 32.5625C117.271 34.1458 117.229 35.3542 117.188 36.1875C117.146 37.1875 117.125 37.875 117.125 38.25C117.083 38.5833 117.104 38.8958 117.188 39.1875C117.271 39.8125 117.521 40.3958 117.938 40.9375C117.438 40.8125 116.896 40.7292 116.312 40.6875C115.771 40.6458 115.271 40.6042 114.812 40.5625C114.271 40.5208 113.729 40.5 113.188 40.5C112.729 40.5 112.229 40.5208 111.688 40.5625C111.229 40.6042 110.667 40.6667 110 40.75C109.333 40.7917 108.604 40.8542 107.812 40.9375C108.146 40.7292 108.417 40.4792 108.625 40.1875C108.833 39.8958 109 39.625 109.125 39.375C109.292 39.0833 109.417 38.8125 109.5 38.5625C109.542 38.3125 109.625 37.7083 109.75 36.75C109.875 35.75 109.958 34.5833 110 33.25C110.042 31.9167 110.042 30.5208 110 29.0625C109.958 27.5625 109.812 26.2083 109.562 25C109.312 23.75 108.917 22.7292 108.375 21.9375C107.875 21.1458 107.208 20.7917 106.375 20.875C105.375 20.9583 104.354 21.2083 103.312 21.625C102.438 21.9583 101.5 22.4583 100.5 23.125C99.5 23.7917 98.5625 24.6875 97.6875 25.8125C97.5208 28.9375 97.4167 31.4167 97.375 33.25C97.375 35.0833 97.3958 36.4792 97.4375 37.4375C97.4792 38.5625 97.5208 39.3333 97.5625 39.75C97.6042 40.0417 97.7083 40.3333 97.875 40.625C98 40.875 98.1458 41.1667 98.3125 41.5C98.5208 41.8333 98.75 42.1458 99 42.4375L89.0625 41.9375C89.3958 41.7708 89.6875 41.5625 89.9375 41.3125C90.1875 41.0208 90.3958 40.7292 90.5625 40.4375C90.7292 40.1042 90.8958 39.7708 91.0625 39.4375C91.1875 39.1458 91.2917 38.4583 91.375 37.375C91.5 36.2917 91.6042 35.0208 91.6875 33.5625C91.7708 32.0625 91.8333 30.5 91.875 28.875C91.9583 27.2083 92 25.6667 92 24.25C92.0417 22.7917 92.0625 21.5625 92.0625 20.5625C92.0625 19.5208 92.0417 18.8958 92 18.6875C91.875 18.2708 91.6458 17.8333 91.3125 17.375C91.0208 17.0417 90.625 16.6875 90.125 16.3125C89.625 15.8958 88.9583 15.5833 88.125 15.375ZM160.438 17C161.521 17 162.646 17.2083 163.812 17.625C164.979 18 166.104 18.5 167.188 19.125C168.271 19.7083 169.25 20.3542 170.125 21.0625C171.042 21.7292 171.792 22.375 172.375 23C173.417 24.125 174.125 25.6458 174.5 27.5625C174.917 29.4375 175 31.375 174.75 33.375C174.5 35.3333 173.917 37.1875 173 38.9375C172.083 40.6875 170.812 41.9792 169.188 42.8125C168.021 43.3958 166.875 43.8542 165.75 44.1875C164.625 44.5208 163.542 44.7708 162.5 44.9375C161.458 45.1042 160.479 45.1875 159.562 45.1875C158.646 45.1875 157.854 45.1667 157.188 45.125C155.938 45.0417 154.625 44.6042 153.25 43.8125C151.917 43.0208 150.646 42.0417 149.438 40.875C148.271 39.7083 147.271 38.4375 146.438 37.0625C145.604 35.6458 145.104 34.3125 144.938 33.0625C144.688 31.3542 144.646 29.5625 144.812 27.6875C144.979 25.8125 145.583 24.0833 146.625 22.5C147.708 20.9167 149.333 19.6042 151.5 18.5625C153.708 17.5208 156.688 17 160.438 17ZM158.375 41.25C158.833 41.3333 159.458 41.2292 160.25 40.9375C161.042 40.6042 161.812 40.0833 162.562 39.375C163.354 38.6667 164.042 37.7708 164.625 36.6875C165.25 35.5625 165.625 34.2083 165.75 32.625C165.875 31.0833 165.875 29.6667 165.75 28.375C165.667 27.0833 165.479 25.9583 165.188 25C164.896 24 164.562 23.1875 164.188 22.5625C163.812 21.9375 163.417 21.5 163 21.25C162.292 20.875 161.438 20.5833 160.438 20.375C159.438 20.125 158.583 20.1667 157.875 20.5C157.542 20.6667 157.125 21.0208 156.625 21.5625C156.125 22.1042 155.625 22.7917 155.125 23.625C154.625 24.4167 154.167 25.3333 153.75 26.375C153.375 27.4167 153.104 28.5 152.938 29.625C152.771 30.75 152.729 31.9583 152.812 33.25C152.938 34.5417 153.208 35.7708 153.625 36.9375C154.042 38.0625 154.625 39.0417 155.375 39.875C156.167 40.6667 157.167 41.125 158.375 41.25ZM177.125 15.0625C177.917 15.1042 178.625 15.125 179.25 15.125C179.917 15.0833 180.479 15.0417 180.938 15C181.479 14.9583 181.958 14.9167 182.375 14.875C183 14.7917 183.646 14.6875 184.312 14.5625C184.896 14.4792 185.5 14.375 186.125 14.25C186.792 14.0833 187.438 13.8958 188.062 13.6875C187.812 14.3125 187.604 14.8542 187.438 15.3125C187.271 15.7708 187.146 16.1667 187.062 16.5C186.938 16.875 186.875 17.1875 186.875 17.4375C186.833 17.7292 186.812 18.0833 186.812 18.5C186.771 19.2083 186.771 20.3542 186.812 21.9375C188.979 20.0625 190.792 18.6042 192.25 17.5625C193.75 16.5208 194.938 15.7083 195.812 15.125C196.854 14.4583 197.667 14.0208 198.25 13.8125C199.792 13.5625 201.146 13.9167 202.312 14.875C202.812 15.2917 203.292 15.8542 203.75 16.5625C204.208 17.2292 204.604 18.125 204.938 19.25C205.271 20.375 205.521 21.7292 205.688 23.3125C205.854 24.8542 205.875 26.7083 205.75 28.875C204.875 28.9583 204.083 29.0417 203.375 29.125C202.708 29.2083 202.146 29.2708 201.688 29.3125C201.146 29.3958 200.646 29.4375 200.188 29.4375L198.5 29.625C197.917 29.7083 197.188 29.7917 196.312 29.875C195.479 29.9167 194.458 30 193.25 30.125C195 28.7083 196.125 27.4792 196.625 26.4375C197.167 25.3542 197.396 24.4583 197.312 23.75C197.229 22.9583 196.854 22.2708 196.188 21.6875C195.396 21.2292 194.542 21.0625 193.625 21.1875C192.833 21.2708 191.917 21.625 190.875 22.25C189.833 22.875 188.729 24.0417 187.562 25.75C187.646 28.4167 187.729 30.625 187.812 32.375C187.938 34.125 188.042 35.5417 188.125 36.625C188.25 37.875 188.354 38.8542 188.438 39.5625C188.562 40.1875 188.812 40.8542 189.188 41.5625C189.479 42.1458 189.896 42.7917 190.438 43.5C190.979 44.2083 191.688 44.9167 192.562 45.625C190.729 45.5417 189.229 45.5417 188.062 45.625C187.354 45.6667 186.729 45.7083 186.188 45.75C185.604 45.8333 184.979 45.9167 184.312 46C183.729 46.0833 183.042 46.1667 182.25 46.25C181.5 46.375 180.667 46.5 179.75 46.625C180.083 46.1667 180.354 45.625 180.562 45C180.771 44.4167 180.938 43.8542 181.062 43.3125C181.229 42.6875 181.354 42.0417 181.438 41.375C181.479 40.7917 181.5 39.9167 181.5 38.75C181.542 37.5833 181.521 36.2708 181.438 34.8125C181.396 33.3125 181.333 31.7708 181.25 30.1875C181.167 28.5625 181.062 27.0417 180.938 25.625C180.812 24.2083 180.667 22.9792 180.5 21.9375C180.375 20.8542 180.229 20.1042 180.062 19.6875C179.854 19.1875 179.604 18.6875 179.312 18.1875C179.062 17.7292 178.75 17.25 178.375 16.75C178 16.2083 177.583 15.6458 177.125 15.0625ZM205.188 13.0625C206.021 13.1875 206.771 13.2917 207.438 13.375C208.062 13.4167 208.625 13.4583 209.125 13.5C209.667 13.5417 210.188 13.5625 210.688 13.5625C211.146 13.5625 211.729 13.5417 212.438 13.5C213.021 13.4583 213.771 13.4167 214.688 13.375C215.646 13.2917 216.771 13.1875 218.062 13.0625C217.979 13.2292 217.812 13.75 217.562 14.625C217.312 15.4583 217.062 16.5 216.812 17.75C216.562 18.9583 216.333 20.3125 216.125 21.8125C215.958 23.2708 215.875 24.7292 215.875 26.1875C215.917 27.6042 216.104 28.9583 216.438 30.25C216.771 31.5 217.312 32.5208 218.062 33.3125C219.646 34.9375 221.042 35.9167 222.25 36.25C223.5 36.5833 224.583 36.5417 225.5 36.125C226.417 35.7083 227.167 35.0833 227.75 34.25C228.333 33.4167 228.75 32.6458 229 31.9375C229.625 30.0208 230 28 230.125 25.875C230.208 24.0417 230.062 22 229.688 19.75C229.312 17.5 228.417 15.2083 227 12.875C228.083 12.9583 229.021 13.0208 229.812 13.0625C230.604 13.1042 231.292 13.1458 231.875 13.1875C232.542 13.2292 233.125 13.2708 233.625 13.3125C234.083 13.3542 234.625 13.3542 235.25 13.3125C235.792 13.3125 236.438 13.2917 237.188 13.25C237.979 13.1667 238.854 13.0833 239.812 13C239.979 17.0833 240.125 20.7292 240.25 23.9375C240.375 27.1042 240.458 29.9167 240.5 32.375C240.583 34.7917 240.625 36.8958 240.625 38.6875C240.625 40.4375 240.625 41.9167 240.625 43.125C240.583 46 240.458 47.8958 240.25 48.8125C239.917 50.1042 239.312 51.3958 238.438 52.6875C237.604 53.9792 236.542 55.125 235.25 56.125C233.958 57.1667 232.458 57.9583 230.75 58.5C229.083 59.0833 227.25 59.2917 225.25 59.125C223.292 58.9583 221.729 58.6875 220.562 58.3125C219.438 57.9792 218.542 57.5833 217.875 57.125C217.25 56.6667 216.792 56.1875 216.5 55.6875C216.25 55.1875 216.062 54.6667 215.938 54.125C215.812 53.625 215.688 53.1458 215.562 52.6875C215.438 52.2292 215.188 51.8333 214.812 51.5C214.354 51.125 213.875 50.75 213.375 50.375C212.917 50.0417 212.417 49.7083 211.875 49.375C211.375 49.0417 210.875 48.7708 210.375 48.5625L223.688 47.8125C223.312 48.3125 223.042 48.7708 222.875 49.1875C222.708 49.6042 222.604 49.9583 222.562 50.25C222.521 50.625 222.542 50.9375 222.625 51.1875C222.792 51.6875 223.083 52.2292 223.5 52.8125C223.958 53.4375 224.542 53.9167 225.25 54.25C225.958 54.625 226.792 54.75 227.75 54.625C228.75 54.5 229.875 53.9792 231.125 53.0625C232.167 52.2708 233.042 51 233.75 49.25C234.333 47.75 234.792 45.6458 235.125 42.9375C235.458 40.2292 235.396 36.6667 234.938 32.25C234.188 34.8333 233.167 36.8125 231.875 38.1875C230.583 39.5625 229.292 40.5625 228 41.1875C226.5 41.9375 224.938 42.3333 223.312 42.375C221.146 42.2917 219.292 42.0208 217.75 41.5625C216.208 41.0625 214.938 40.3958 213.938 39.5625C212.938 38.7292 212.146 37.75 211.562 36.625C211.021 35.4583 210.625 34.1667 210.375 32.75C210.125 31.3333 210 29.9167 210 28.5C210 27.0417 210 25.6875 210 24.4375C210.042 23.1875 210.062 22.0625 210.062 21.0625C210.062 20.0208 209.958 19.1875 209.75 18.5625C209.5 17.9375 209.167 17.3125 208.75 16.6875C208.417 16.1458 207.958 15.5625 207.375 14.9375C206.75 14.2708 206.021 13.6458 205.188 13.0625ZM75.375 76.875C78.0417 76.8333 80.2292 77.3125 81.9375 78.3125C83.6875 79.3125 85.1042 80.5 86.1875 81.875C87.2708 83.25 88.1042 84.6458 88.6875 86.0625C89.2708 87.4375 89.7292 88.5208 90.0625 89.3125C90.1458 89.5208 90.3125 89.7917 90.5625 90.125C90.7708 90.4167 91.0625 90.7708 91.4375 91.1875C91.8542 91.5625 92.375 92 93 92.5C91.7083 92.5417 90.5625 92.5833 89.5625 92.625C88.5625 92.625 87.7083 92.6458 87 92.6875C86.2083 92.7292 85.5 92.7708 84.875 92.8125C84.25 92.8542 83.4792 92.9167 82.5625 93C81.7292 93.0833 80.7083 93.1667 79.5 93.25C78.2917 93.3333 76.8125 93.4583 75.0625 93.625C76.1042 92.375 76.9167 91.2708 77.5 90.3125C78.125 89.3125 78.5833 88.4375 78.875 87.6875C79.2083 86.8958 79.3958 86.2083 79.4375 85.625C79.5208 85.0417 79.5 84.5417 79.375 84.125C79.125 83.1667 78.4792 82.4792 77.4375 82.0625C74.4375 81.2292 71.8125 81.8958 69.5625 84.0625C67.3542 86.1875 65.7708 89.6875 64.8125 94.5625C64.3542 96.9792 63.9167 99.5 63.5 102.125C63.125 104.708 62.9792 107.083 63.0625 109.25C63.1458 111.375 63.5625 113.104 64.3125 114.438C65.0625 115.771 66.3542 116.396 68.1875 116.312C69.9792 116.229 71.5 115.938 72.75 115.438C74 114.896 75 114.271 75.75 113.562C76.5 112.812 77.0208 112.021 77.3125 111.188C77.6458 110.312 77.7708 109.5 77.6875 108.75C77.5208 108.167 77.0833 107.542 76.375 106.875C75.75 106.292 74.8125 105.646 73.5625 104.938C72.3125 104.188 70.5208 103.417 68.1875 102.625C70.3958 102.5 72.2083 102.417 73.625 102.375C75.0833 102.292 76.2292 102.208 77.0625 102.125C78.0625 102.042 78.8333 101.979 79.375 101.938C79.875 101.896 80.6042 101.854 81.5625 101.812C82.3958 101.771 83.4583 101.75 84.75 101.75C86.0833 101.75 87.75 101.729 89.75 101.688C89 102.438 88.4167 103.125 88 103.75C87.7917 104.083 87.6042 104.375 87.4375 104.625C87.2708 105.042 87.2083 105.896 87.25 107.188C87.25 108.271 87.3333 109.875 87.5 112C87.6667 114.083 87.9792 116.938 88.4375 120.562L80.125 121.688L80.5 113.25C79.5417 115.542 78.3333 117.25 76.875 118.375C75.4583 119.5 74.1042 120.292 72.8125 120.75C71.2708 121.292 69.6667 121.542 68 121.5C65.8333 121.292 63.6667 120.792 61.5 120C59.3333 119.208 57.4167 118 55.75 116.375C54.0833 114.708 52.7917 112.562 51.875 109.938C51 107.312 50.7292 104.062 51.0625 100.188C51.4375 96.3125 52.3542 92.9375 53.8125 90.0625C55.3125 87.1458 57.1667 84.7292 59.375 82.8125C61.5833 80.8958 64.0625 79.4583 66.8125 78.5C69.6042 77.5 72.4583 76.9583 75.375 76.875ZM97.6875 96.6875C97.8958 96.4375 98.0208 95.9792 98.0625 95.3125C98.1458 94.6042 98.3125 93.8125 98.5625 92.9375C98.8542 92.0625 99.3333 91.1458 100 90.1875C100.667 89.2292 101.75 88.3333 103.25 87.5C104.708 86.6667 106.125 86.1667 107.5 86C108.875 85.8333 110.188 85.8958 111.438 86.1875C112.688 86.4792 113.854 86.9375 114.938 87.5625C116.062 88.1875 117.083 88.875 118 89.625C118.625 90.125 119.125 90.8542 119.5 91.8125C119.875 92.7292 120.167 93.7708 120.375 94.9375C120.583 96.1042 120.729 97.3333 120.812 98.625C120.938 99.875 121.021 101.104 121.062 102.312C121.104 103.479 121.125 104.562 121.125 105.562C121.167 106.521 121.25 107.312 121.375 107.938C121.542 108.854 121.833 109.646 122.25 110.312C122.667 110.938 123.125 111.479 123.625 111.938C124.125 112.354 124.625 112.688 125.125 112.938C125.625 113.188 126.062 113.375 126.438 113.5C126.688 113.625 126.917 113.708 127.125 113.75C127.542 113.917 127.833 113.917 128 113.75C127.75 114.333 127.521 114.833 127.312 115.25C127.104 115.667 126.938 116.021 126.812 116.312C126.646 116.646 126.5 116.917 126.375 117.125C126.25 117.375 126.104 117.604 125.938 117.812C125.812 118.021 125.646 118.25 125.438 118.5C125.229 118.75 125.021 119.021 124.812 119.312C124.271 119.104 123.75 118.854 123.25 118.562C122.792 118.271 122.375 118 122 117.75C121.542 117.458 121.125 117.167 120.75 116.875C120.375 116.583 120.021 116.25 119.688 115.875C119.396 115.542 119.083 115.188 118.75 114.812C118.458 114.438 118.208 114.021 118 113.562C117.75 114.104 117.146 114.875 116.188 115.875C115.271 116.875 114.062 117.792 112.562 118.625C111.062 119.417 109.312 119.979 107.312 120.312C105.354 120.646 103.188 120.417 100.812 119.625C99.7708 119.292 98.7917 118.812 97.875 118.188C96.9583 117.521 96.1667 116.729 95.5 115.812C94.875 114.896 94.4167 113.854 94.125 112.688C93.875 111.479 93.8958 110.146 94.1875 108.688C94.4792 107.229 95 106 95.75 105C96.5 104 97.3958 103.188 98.4375 102.562C99.4792 101.938 100.646 101.458 101.938 101.125C103.229 100.792 104.562 100.562 105.938 100.438C107.021 100.396 108.104 100.458 109.188 100.625C110.104 100.792 111.062 101.104 112.062 101.562C113.062 101.979 113.917 102.625 114.625 103.5C114.583 101.292 114.5 99.5417 114.375 98.25C114.292 96.9167 114.208 95.8958 114.125 95.1875C113.958 94.3542 113.812 93.7708 113.688 93.4375C113.479 93.1458 113.25 92.8125 113 92.4375C112.792 92.0625 112.521 91.7292 112.188 91.4375C111.854 91.1042 111.438 90.8333 110.938 90.625C110.438 90.4167 109.854 90.3333 109.188 90.375C108.479 90.4167 107.917 90.6042 107.5 90.9375C107.083 91.2708 106.75 91.6667 106.5 92.125C106.292 92.5417 106.167 93 106.125 93.5C106.083 94 106.104 94.4375 106.188 94.8125C106.271 95.0625 106.396 95.3333 106.562 95.625C106.729 95.875 106.958 96.1458 107.25 96.4375C107.542 96.7292 107.938 96.9792 108.438 97.1875C107.479 97.3125 106.625 97.4167 105.875 97.5C105.125 97.5417 104.479 97.6042 103.938 97.6875C103.312 97.7708 102.771 97.8333 102.312 97.875C101.854 97.9167 101.312 98 100.688 98.125C100.146 98.2083 99.4792 98.3125 98.6875 98.4375C97.8958 98.5625 96.9792 98.7292 95.9375 98.9375C96.1875 98.6458 96.4167 98.375 96.625 98.125C96.8333 97.8333 97.0208 97.5833 97.1875 97.375C97.3542 97.125 97.5208 96.8958 97.6875 96.6875ZM107.062 104.125C106.312 104.167 105.562 104.354 104.812 104.688C104.062 104.979 103.396 105.417 102.812 106C102.229 106.542 101.729 107.188 101.312 107.938C100.938 108.646 100.75 109.438 100.75 110.312C100.75 111.188 100.958 111.958 101.375 112.625C101.833 113.25 102.417 113.771 103.125 114.188C103.875 114.604 104.667 114.854 105.5 114.938C106.375 115.021 107.229 114.938 108.062 114.688C108.854 114.396 109.604 113.938 110.312 113.312C111.021 112.646 111.625 111.938 112.125 111.188C112.625 110.396 112.979 109.625 113.188 108.875C113.396 108.083 113.417 107.438 113.25 106.938C112.917 105.854 112.167 105.104 111 104.688C109.833 104.229 108.521 104.042 107.062 104.125ZM127.062 92.375C128.021 92.2917 128.833 92.2083 129.5 92.125C130.208 92.0417 130.792 91.9583 131.25 91.875C131.792 91.7917 132.25 91.7083 132.625 91.625C133 91.5833 133.417 91.5 133.875 91.375C134.292 91.2917 134.75 91.1875 135.25 91.0625C135.792 90.8958 136.375 90.7083 137 90.5L136.625 98.4375C137.542 96.9792 138.604 95.875 139.812 95.125C141.021 94.3333 142.167 93.75 143.25 93.375C144.542 92.9167 145.833 92.6458 147.125 92.5625C148.458 92.6042 149.688 92.8125 150.812 93.1875C151.771 93.5208 152.729 94.0417 153.688 94.75C154.688 95.4583 155.458 96.5 156 97.875C157.417 96.4167 158.812 95.2917 160.188 94.5C161.604 93.6667 162.854 93.0417 163.938 92.625C165.229 92.1667 166.438 91.8958 167.562 91.8125C169.062 91.7708 170.438 92.0208 171.688 92.5625C172.979 93.1042 174.104 93.7917 175.062 94.625C176.021 95.4167 176.792 96.2708 177.375 97.1875C177.958 98.0625 178.292 98.8333 178.375 99.5C178.5 100.417 178.438 101.604 178.188 103.062C177.938 104.479 177.646 105.938 177.312 107.438C176.979 108.896 176.667 110.25 176.375 111.5C176.125 112.708 176.021 113.562 176.062 114.062C176.188 114.479 176.479 114.979 176.938 115.562C177.354 116.062 177.958 116.688 178.75 117.438C179.583 118.146 180.771 118.979 182.312 119.938C180.979 119.896 179.792 119.854 178.75 119.812C177.75 119.771 176.896 119.708 176.188 119.625C175.354 119.542 174.625 119.479 174 119.438C173.5 119.438 172.896 119.396 172.188 119.312C171.604 119.271 170.833 119.208 169.875 119.125C168.958 119.042 167.896 118.958 166.688 118.875C167.146 118.75 167.521 118.521 167.812 118.188C168.104 117.812 168.354 117.458 168.562 117.125C168.771 116.708 168.938 116.25 169.062 115.75C169.146 115.333 169.229 114.667 169.312 113.75C169.396 112.833 169.458 111.792 169.5 110.625C169.583 109.458 169.625 108.229 169.625 106.938C169.667 105.646 169.667 104.417 169.625 103.25C169.583 102.083 169.5 101.021 169.375 100.062C169.25 99.1042 169.083 98.375 168.875 97.875C168.708 97.5 168.417 97.2083 168 97C167.583 96.75 167.104 96.6042 166.562 96.5625C166.021 96.4792 165.479 96.5 164.938 96.625C164.396 96.7083 163.917 96.875 163.5 97.125C163.125 97.4167 162.625 97.8125 162 98.3125C161.458 98.7708 160.75 99.3958 159.875 100.188C159 100.979 157.896 101.979 156.562 103.188C156.438 105.812 156.333 107.938 156.25 109.562C156.208 111.146 156.167 112.354 156.125 113.188C156.083 114.188 156.062 114.875 156.062 115.25C156.021 115.583 156.042 115.896 156.125 116.188C156.208 116.812 156.458 117.396 156.875 117.938C156.375 117.812 155.833 117.729 155.25 117.688C154.708 117.646 154.208 117.604 153.75 117.562C153.208 117.521 152.667 117.5 152.125 117.5C151.667 117.5 151.167 117.521 150.625 117.562C150.167 117.604 149.604 117.667 148.938 117.75C148.271 117.792 147.542 117.854 146.75 117.938C147.083 117.729 147.354 117.479 147.562 117.188C147.771 116.896 147.938 116.625 148.062 116.375C148.229 116.083 148.354 115.812 148.438 115.562C148.479 115.312 148.562 114.708 148.688 113.75C148.812 112.75 148.896 111.583 148.938 110.25C148.979 108.917 148.979 107.521 148.938 106.062C148.896 104.562 148.75 103.208 148.5 102C148.25 100.75 147.854 99.7292 147.312 98.9375C146.812 98.1458 146.146 97.7917 145.312 97.875C144.312 97.9583 143.292 98.2083 142.25 98.625C141.375 98.9583 140.438 99.4583 139.438 100.125C138.438 100.792 137.5 101.688 136.625 102.812C136.458 105.938 136.354 108.417 136.312 110.25C136.312 112.083 136.333 113.479 136.375 114.438C136.417 115.562 136.458 116.333 136.5 116.75C136.542 117.042 136.646 117.333 136.812 117.625C136.938 117.875 137.083 118.167 137.25 118.5C137.458 118.833 137.688 119.146 137.938 119.438L128 118.938C128.333 118.771 128.625 118.562 128.875 118.312C129.125 118.021 129.333 117.729 129.5 117.438C129.667 117.104 129.833 116.771 130 116.438C130.125 116.146 130.229 115.458 130.312 114.375C130.438 113.292 130.542 112.021 130.625 110.562C130.708 109.062 130.771 107.5 130.812 105.875C130.896 104.208 130.938 102.667 130.938 101.25C130.979 99.7917 131 98.5625 131 97.5625C131 96.5208 130.979 95.8958 130.938 95.6875C130.812 95.2708 130.583 94.8333 130.25 94.375C129.958 94.0417 129.562 93.6875 129.062 93.3125C128.562 92.8958 127.896 92.5833 127.062 92.375ZM198.875 111.938C200.042 111.938 201.125 111.812 202.125 111.562C202.958 111.354 203.75 111.021 204.5 110.562C205.292 110.062 205.812 109.333 206.062 108.375C206.896 108.542 207.604 108.688 208.188 108.812C208.771 108.896 209.271 108.979 209.688 109.062C210.146 109.188 210.542 109.271 210.875 109.312C211.208 109.396 211.604 109.479 212.062 109.562C212.479 109.646 212.979 109.75 213.562 109.875C214.188 109.958 214.917 110.083 215.75 110.25C215.125 110.167 214.479 110.229 213.812 110.438C213.188 110.646 212.583 110.875 212 111.125C211.333 111.417 210.708 111.771 210.125 112.188C209.75 112.438 209.312 112.812 208.812 113.312C208.354 113.812 207.688 114.292 206.812 114.75C205.938 115.208 204.771 115.604 203.312 115.938C201.896 116.229 200.062 116.333 197.812 116.25C195.104 116.167 192.833 115.688 191 114.812C189.167 113.896 187.688 112.792 186.562 111.5C185.438 110.167 184.625 108.729 184.125 107.188C183.625 105.646 183.354 104.208 183.312 102.875C183.271 101.542 183.667 100.146 184.5 98.6875C185.333 97.2292 186.5 95.8958 188 94.6875C189.542 93.4792 191.396 92.5 193.562 91.75C195.729 90.9583 198.104 90.5625 200.688 90.5625C202.188 90.5625 203.562 90.75 204.812 91.125C206.104 91.4583 207.271 91.9167 208.312 92.5C209.396 93.0833 210.333 93.75 211.125 94.5C211.917 95.2083 212.583 95.9375 213.125 96.6875C213.667 97.4792 214.125 98.3125 214.5 99.1875C214.833 99.9375 215.104 100.792 215.312 101.75C215.521 102.708 215.583 103.688 215.5 104.688C212.333 104.771 209.771 104.833 207.812 104.875C205.896 104.917 204.396 104.938 203.312 104.938H200.5H198.375C197.625 104.938 196.646 104.958 195.438 105C194.229 105.042 192.75 105.104 191 105.188C191.208 106.854 191.729 108.146 192.562 109.062C193.438 109.938 194.354 110.604 195.312 111.062C196.396 111.562 197.583 111.854 198.875 111.938ZM193.25 100.688C194.583 100.771 195.688 100.833 196.562 100.875C197.479 100.917 198.229 100.958 198.812 101C199.438 101.042 199.938 101.062 200.312 101.062H201.875C202.917 101.062 204.854 101 207.688 100.875C207.562 99.0417 207.167 97.6458 206.5 96.6875C205.875 95.7292 205.208 95.0208 204.5 94.5625C203.667 94.0625 202.75 93.7708 201.75 93.6875C199.042 93.7292 197.021 94.2917 195.688 95.375C194.396 96.4583 193.583 98.2292 193.25 100.688Z" fill="white"/>
</svg>
